<svg width="24" height="24" viewBox="0 0 24 24" fill="none" xmlns="http://www.w3.org/2000/svg">
<g id="_logo">
<path id="logo" fill-rule="evenodd" clip-rule="evenodd" d="M22.4911 17.2239C22.4911 18.2324 21.9868 18.4215 21.9868 18.4215C21.9868 18.4215 13.0361 23.5903 12.4688 23.9055C12.1536 24.0315 11.8384 24.0315 11.5232 23.9055C11.5232 23.9055 2.19427 18.4846 1.8791 18.2324C1.69 18.1064 1.56393 17.8542 1.5009 17.6021C1.5009 17.6021 1.5009 6.88641 1.5009 6.38214C1.5009 5.87787 2.13124 5.56271 2.13124 5.56271L11.4602 0.141825C11.8384 -0.0472751 12.2166 -0.0472751 12.5948 0.141825C12.5948 0.141825 20.8522 4.93237 21.7347 5.43664C22.239 5.68877 22.5541 6.19304 22.4911 6.76034C22.4281 6.82338 22.4281 16.3414 22.4911 17.2239ZM18.7721 6.50821C16.8811 5.43664 12.3427 2.78923 12.3427 2.78923C12.0905 2.66316 11.7123 2.66316 11.4602 2.78923L4.14831 7.01248C4.14831 7.01248 3.64404 7.32764 3.64404 7.70584C3.64404 8.08404 3.64404 16.4675 3.64404 16.4675C3.64404 16.6566 3.77011 16.8457 3.89618 16.9718C4.14831 17.1609 11.4602 21.3841 11.4602 21.3841C11.7123 21.5102 11.9645 21.5102 12.2166 21.3841C12.6579 21.132 19.6546 17.0978 19.6546 17.0978C19.6546 17.0978 20.0328 16.9087 20.0328 16.1523C20.0328 15.9002 20.0328 15.0808 20.0328 13.9462L11.8384 18.9258V17.0348C11.8384 16.5305 12.0905 16.0893 12.4688 15.7111L19.7806 11.2988C19.9697 11.0466 20.0958 10.7315 20.0958 10.3532C20.0958 9.53381 20.0958 8.84045 20.0958 8.39921L11.8384 13.3789V11.4248C11.8384 10.9836 12.0275 10.5424 12.3427 10.2902L18.7721 6.50821Z" fill="#409EFF"/>
</g>
</svg>
