<svg width="12" height="12" viewBox="0 0 12 12" fill="none" xmlns="http://www.w3.org/2000/svg">
<g id="arrow-down">
<path id="Union" d="M9.74996 3.81467L5.99996 7.47092L2.24996 3.81467C2.17971 3.74442 2.09771 3.7093 2.00396 3.7093C1.91021 3.7093 1.82821 3.74442 1.75796 3.81467C1.68771 3.88492 1.65259 3.96692 1.65259 4.06067C1.65259 4.15442 1.68384 4.23255 1.74634 4.29505L5.74234 8.18568C5.81259 8.25593 5.89859 8.29105 6.00034 8.29105C6.10209 8.29105 6.18809 8.25593 6.25834 8.18568L10.2543 4.30667C10.3168 4.23642 10.3481 4.15242 10.3481 4.05467C10.3481 3.95692 10.313 3.87492 10.2427 3.80867C10.1725 3.74242 10.0905 3.70917 9.99671 3.70892C9.90296 3.70867 9.82096 3.7438 9.75071 3.8143L9.74996 3.81467Z" fill="#606266"/>
</g>
</svg>
