<svg width="14" height="14" viewBox="0 0 14 14" fill="none" xmlns="http://www.w3.org/2000/svg">
<g id="Icon_placeholder">
<path id="Union" d="M2.1875 6.12498C2.07147 6.12498 1.96019 6.07889 1.87814 5.99684C1.79609 5.91479 1.75 5.80351 1.75 5.68748V2.18835C1.75 2.07232 1.79609 1.96104 1.87814 1.879C1.96019 1.79695 2.07147 1.75085 2.1875 1.75085H5.6875C5.80353 1.75085 5.91481 1.79695 5.99686 1.879C6.07891 1.96104 6.125 2.07232 6.125 2.18835V5.68748C6.125 5.80351 6.07891 5.91479 5.99686 5.99684C5.91481 6.07889 5.80353 6.12498 5.6875 6.12498H2.1875ZM8.3125 6.12498C8.19647 6.12498 8.08519 6.07889 8.00314 5.99684C7.92109 5.91479 7.875 5.80351 7.875 5.68748V2.18835C7.875 2.07232 7.92109 1.96104 8.00314 1.879C8.08519 1.79695 8.19647 1.75085 8.3125 1.75085H11.8116C11.9277 1.75085 12.0389 1.79695 12.121 1.879C12.203 1.96104 12.2491 2.07232 12.2491 2.18835V5.68748C12.2491 5.80351 12.203 5.91479 12.121 5.99684C12.0389 6.07889 11.9277 6.12498 11.8116 6.12498H8.3125ZM2.1875 12.25C2.07147 12.25 1.96019 12.2039 1.87814 12.1218C1.79609 12.0398 1.75 11.9285 1.75 11.8125V8.31248C1.75 8.19645 1.79609 8.08517 1.87814 8.00312C1.96019 7.92107 2.07147 7.87498 2.1875 7.87498H5.6875C5.80353 7.87498 5.91481 7.92107 5.99686 8.00312C6.07891 8.08517 6.125 8.19645 6.125 8.31248V11.8125C6.125 11.9285 6.07891 12.0398 5.99686 12.1218C5.91481 12.2039 5.80353 12.25 5.6875 12.25H2.1875ZM8.3125 12.25C8.19647 12.25 8.08519 12.2039 8.00314 12.1218C7.92109 12.0398 7.875 11.9285 7.875 11.8125V8.31248C7.875 8.19645 7.92109 8.08517 8.00314 8.00312C8.08519 7.92107 8.19647 7.87498 8.3125 7.87498H11.8116C11.9277 7.87498 12.0389 7.92107 12.121 8.00312C12.203 8.08517 12.2491 8.19645 12.2491 8.31248V11.8125C12.2491 11.9285 12.203 12.0398 12.121 12.1218C12.0389 12.2039 11.9277 12.25 11.8116 12.25H8.3125Z" fill="#606266"/>
</g>
</svg>
