<svg width="14" height="14" viewBox="0 0 14 14" fill="none" xmlns="http://www.w3.org/2000/svg">
<g id="Icon_placeholder">
<path id="Union" d="M2.1875 11.375H11.8125C11.9402 11.375 12.0451 11.416 12.1271 11.4979C12.209 11.5799 12.25 11.6847 12.25 11.8125C12.25 11.9402 12.209 12.0451 12.1271 12.1271C12.0451 12.209 11.9402 12.25 11.8125 12.25H2.1875C2.05975 12.25 1.9549 12.209 1.87294 12.1271C1.79098 12.0451 1.75 11.9402 1.75 11.8125C1.75 11.6847 1.79098 11.5799 1.87294 11.4979C1.9549 11.416 2.05975 11.375 2.1875 11.375ZM7.4375 7.90255L10.6641 4.67599L11.2932 5.29111L6.95931 9.62499L2.62544 5.29111L3.24056 4.67599L6.56294 7.99836V1.75043H7.43794V7.90299L7.4375 7.90255Z" fill="#606266"/>
</g>
</svg>
