<svg width="14" height="14" viewBox="0 0 14 14" fill="none" xmlns="http://www.w3.org/2000/svg">
<g id="Icon_placeholder">
<path id="Union" d="M8.54483 0.875L11.5802 2.625L10.9922 3.6505C11.1929 3.88762 11.3752 4.14735 11.5391 4.42969C11.703 4.71202 11.8398 5.00369 11.9495 5.30469H13.1255V8.80469H11.9495C11.7307 9.41544 11.4116 9.96683 10.9922 10.4589L11.5802 11.4844L8.54483 13.2344L7.95683 12.2089C7.31867 12.3273 6.68065 12.3273 6.04277 12.2089L5.45477 13.2344L2.4194 11.4844L3.0074 10.4589C2.79769 10.2127 2.61306 9.95065 2.45352 9.67269C2.29398 9.39473 2.15952 9.1054 2.05015 8.80469H0.874146V5.30469H2.05015C2.2689 4.69394 2.58798 4.14254 3.0074 3.6505L2.4194 2.625L5.45477 0.875L6.04277 1.9005C6.68094 1.78208 7.31896 1.78208 7.95683 1.9005L8.54483 0.875ZM8.87296 2.06456L8.7089 2.338L8.4079 2.87131L7.79277 2.76194C7.26398 2.6616 6.73533 2.6616 6.20683 2.76194L5.59171 2.87131L5.12665 2.06456L3.62252 2.93956L4.07358 3.74631L3.67721 4.21138C3.33071 4.62146 3.06631 5.08171 2.88402 5.59212L2.67883 6.18013H1.74915V7.93012H2.66527L2.88402 8.51812C2.97531 8.78237 3.08469 9.02387 3.21215 9.24262C3.3396 9.46137 3.49462 9.68012 3.67721 9.89887L4.07358 10.3639L3.62252 11.1707L5.12665 12.0457L5.59171 11.2389L6.20683 11.3483C6.73562 11.4486 7.26427 11.4486 7.79277 11.3483L8.4079 11.2389L8.87296 12.0457L10.3771 11.1707L9.92602 10.3639L10.3224 9.89887C10.6689 9.47946 10.9333 9.01921 11.1156 8.51812L11.3208 7.93012H12.2505V6.18013H11.3343L11.1156 5.59212C11.0336 5.34596 10.9242 5.10665 10.7875 4.87419C10.6507 4.64173 10.4956 4.42065 10.3224 4.21094L9.92602 3.74588L10.3771 2.93913L8.87296 2.06456ZM7.00002 3.99219C7.86598 4.01056 8.58829 4.30908 9.16696 4.88775C9.74562 5.46642 10.0441 6.18873 10.0625 7.05469C10.0441 7.92065 9.74562 8.64296 9.16696 9.22162C8.58829 9.80029 7.86598 10.0988 7.00002 10.1172C6.13406 10.0988 5.41175 9.80029 4.83308 9.22162C4.25442 8.64296 3.9559 7.92065 3.93752 7.05469C3.9559 6.18873 4.25442 5.46642 4.83308 4.88775C5.41175 4.30908 6.13406 4.01056 7.00002 3.99219ZM7.00002 4.86719C6.38023 4.88556 5.86529 5.09979 5.45521 5.50987C5.04512 5.91996 4.8309 6.4349 4.81252 7.05469C4.8309 7.67448 5.04512 8.18942 5.45521 8.5995C5.86529 9.00958 6.38023 9.22381 7.00002 9.24219C7.61981 9.22381 8.13475 9.00958 8.54483 8.5995C8.95492 8.18942 9.16915 7.67448 9.18752 7.05469C9.16915 6.4349 8.95492 5.91996 8.54483 5.50987C8.13475 5.09979 7.61981 4.88556 7.00002 4.86719Z" fill="#606266"/>
</g>
</svg>
