<svg width="14" height="14" viewBox="0 0 14 14" fill="none" xmlns="http://www.w3.org/2000/svg">
<g id="Icon_placeholder">
<path id="Union" d="M8.596 7.231C9.77616 7.57603 10.8127 8.29422 11.5504 9.27795C12.288 10.2617 12.687 11.4579 12.6875 12.6875H1.3125C1.31275 11.4579 1.71162 10.2615 2.4493 9.27768C3.18698 8.2939 4.2237 7.57578 5.404 7.231L7 9.625L8.596 7.231ZM9.84375 4.15625C9.84375 4.91046 9.54414 5.63378 9.01083 6.16709C8.47753 6.70039 7.75421 7 7 7C6.24579 7 5.52247 6.70039 4.98917 6.16709C4.45586 5.63378 4.15625 4.91046 4.15625 4.15625C4.15625 3.40204 4.45586 2.67872 4.98917 2.14542C5.52247 1.61211 6.24579 1.3125 7 1.3125C7.75421 1.3125 8.47753 1.61211 9.01083 2.14542C9.54414 2.67872 9.84375 3.40204 9.84375 4.15625Z" fill="white"/>
</g>
</svg>
